<svg xmlns="http://www.w3.org/2000/svg" xmlns:xlink="http://www.w3.org/1999/xlink" xmlns:lucid="lucid" width="1602" height="762"><g transform="translate(161 -279)" lucid:page-tab-id="0_0"><path d="M-500 0h2000v1500H-500z" fill="#fff"/><path d="M-160 286a6 6 0 0 1 6-6h1588a6 6 0 0 1 6 6v748a6 6 0 0 1-6 6H-154a6 6 0 0 1-6-6z" stroke="#000" stroke-opacity="0" stroke-width="2" fill="#fff"/><path d="M0 332a12 12 0 0 1 12-12h136a12 12 0 0 1 12 12v136a12 12 0 0 1-12 12H12a12 12 0 0 1-12-12z" stroke="#3a414a" fill="#fff"/><use xlink:href="#a" transform="matrix(1,0,0,1,5,325) translate(48.64366319444444 70.62717013888889)"/><use xlink:href="#b" transform="matrix(1,0,0,1,5,325) translate(63.81944444444444 100.88975694444444)"/><path d="M200 320h160v160H200z" stroke="#3a414a" fill="#fff"/><use xlink:href="#c" transform="matrix(1,0,0,1,205,325) translate(13.628472222222221 70.62717013888889)"/><use xlink:href="#d" transform="matrix(1,0,0,1,205,325) translate(62.907986111111114 100.88975694444444)"/><path d="M480 400c0 22.1-17.9 40-40 40s-40-17.9-40-40 17.9-40 40-40 40 17.9 40 40zM0 572a12 12 0 0 1 12-12h136a12 12 0 0 1 12 12v136a12 12 0 0 1-12 12H12a12 12 0 0 1-12-12z" stroke="#3a414a" fill="#fff"/><use xlink:href="#a" transform="matrix(1,0,0,1,5,565) translate(48.64366319444444 70.62717013888889)"/><use xlink:href="#e" transform="matrix(1,0,0,1,5,565) translate(63.81944444444444 100.88975694444444)"/><path d="M200 560h160v160H200z" stroke="#3a414a" fill="#fff"/><use xlink:href="#c" transform="matrix(1,0,0,1,205,565) translate(13.628472222222221 70.62717013888889)"/><use xlink:href="#f" transform="matrix(1,0,0,1,205,565) translate(62.907986111111114 100.88975694444444)"/><path d="M480 640c0 22.1-17.9 40-40 40s-40-17.9-40-40 17.9-40 40-40 40 17.9 40 40zM0 812a12 12 0 0 1 12-12h136a12 12 0 0 1 12 12v136a12 12 0 0 1-12 12H12a12 12 0 0 1-12-12z" stroke="#3a414a" fill="#fff"/><use xlink:href="#a" transform="matrix(1,0,0,1,5,805) translate(48.64366319444444 70.62717013888889)"/><use xlink:href="#g" transform="matrix(1,0,0,1,5,805) translate(63.81944444444444 100.88975694444444)"/><path d="M200 800h160v160H200z" stroke="#3a414a" fill="#fff"/><use xlink:href="#c" transform="matrix(1,0,0,1,205,805) translate(13.628472222222221 70.62717013888889)"/><use xlink:href="#h" transform="matrix(1,0,0,1,205,805) translate(62.907986111111114 100.88975694444444)"/><path d="M480 880c0 22.1-17.9 40-40 40s-40-17.9-40-40 17.9-40 40-40 40 17.9 40 40zM1120 332a12 12 0 0 1 12-12h136a12 12 0 0 1 12 12v136a12 12 0 0 1-12 12h-136a12 12 0 0 1-12-12z" stroke="#3a414a" fill="#fff"/><use xlink:href="#a" transform="matrix(1,0,0,1,1125,325) translate(48.64366319444444 70.62717013888889)"/><use xlink:href="#i" transform="matrix(1,0,0,1,1125,325) translate(63.81944444444444 100.88975694444444)"/><path d="M920 320h160v160H920z" stroke="#3a414a" fill="#fff"/><use xlink:href="#c" transform="matrix(1,0,0,1,925,325) translate(13.628472222222221 70.62717013888889)"/><use xlink:href="#j" transform="matrix(1,0,0,1,925,325) translate(62.907986111111114 100.88975694444444)"/><path d="M880 400c0 22.1-17.9 40-40 40s-40-17.9-40-40 17.9-40 40-40 40 17.9 40 40z" stroke="#3a414a" fill="#fff"/><path d="M520 320h240v640H520z" stroke="#3a414a" fill="#f2f3f5" fill-opacity=".5"/><use xlink:href="#k" transform="matrix(1,0,0,1,525,325) translate(70.74544270833334 319.0646701388889)"/><path d="M1120 572a12 12 0 0 1 12-12h136a12 12 0 0 1 12 12v136a12 12 0 0 1-12 12h-136a12 12 0 0 1-12-12z" stroke="#3a414a" fill="#fff"/><use xlink:href="#a" transform="matrix(1,0,0,1,1125,565) translate(48.64366319444444 70.62717013888889)"/><use xlink:href="#l" transform="matrix(1,0,0,1,1125,565) translate(63.81944444444444 100.88975694444444)"/><path d="M920 560h160v160H920z" stroke="#3a414a" fill="#fff"/><use xlink:href="#c" transform="matrix(1,0,0,1,925,565) translate(13.628472222222221 70.62717013888889)"/><use xlink:href="#m" transform="matrix(1,0,0,1,925,565) translate(62.907986111111114 100.88975694444444)"/><path d="M880 640c0 22.1-17.9 40-40 40s-40-17.9-40-40 17.9-40 40-40 40 17.9 40 40zM1120 812a12 12 0 0 1 12-12h136a12 12 0 0 1 12 12v136a12 12 0 0 1-12 12h-136a12 12 0 0 1-12-12z" stroke="#3a414a" fill="#fff"/><use xlink:href="#a" transform="matrix(1,0,0,1,1125,805) translate(48.64366319444444 70.62717013888889)"/><use xlink:href="#n" transform="matrix(1,0,0,1,1125,805) translate(63.81944444444444 100.88975694444444)"/><path d="M920 800h160v160H920z" stroke="#3a414a" fill="#fff"/><use xlink:href="#c" transform="matrix(1,0,0,1,925,805) translate(13.628472222222221 70.62717013888889)"/><use xlink:href="#o" transform="matrix(1,0,0,1,925,805) translate(62.907986111111114 100.88975694444444)"/><path d="M880 880c0 22.1-17.9 40-40 40s-40-17.9-40-40 17.9-40 40-40 40 17.9 40 40z" stroke="#3a414a" fill="#fff"/><path d="M161 400h38" stroke="#3a414a" fill="none"/><path d="M161 400.48h-.5v-.96h.5zM199.5 400.48h-.5v-.96h.5z" stroke="#3a414a" stroke-width=".05" fill="#3a414a"/><path d="M361 400h38" stroke="#3a414a" fill="none"/><path d="M361 400.48h-.5v-.96h.5zM399.5 400l.02.48H399v-.96h.53z" stroke="#3a414a" stroke-width=".05" fill="#3a414a"/><path d="M481 400h38" stroke="#3a414a" fill="none"/><path d="M481 400.48h-.53l.03-.47-.02-.48h.53zM519.5 400.48h-.5v-.96h.5z" stroke="#3a414a" stroke-width=".05" fill="#3a414a"/><path d="M799 400h-38" stroke="#3a414a" fill="none"/><path d="M799.5 400l.02.48H799v-.96h.53zM761 400.48h-.5v-.96h.5z" stroke="#3a414a" stroke-width=".05" fill="#3a414a"/><path d="M919 400h-38" stroke="#3a414a" fill="none"/><path d="M919.5 400.48h-.5v-.96h.5zM881 400.48h-.53l.03-.47-.02-.48h.53z" stroke="#3a414a" stroke-width=".05" fill="#3a414a"/><path d="M1119 400h-38" stroke="#3a414a" fill="none"/><path d="M1119.5 400.48h-.5v-.96h.5zM1081 400.48h-.5v-.96h.5z" stroke="#3a414a" stroke-width=".05" fill="#3a414a"/><path d="M161 640h38" stroke="#3a414a" fill="none"/><path d="M161 640.48h-.5v-.96h.5zM199.5 640.48h-.5v-.96h.5z" stroke="#3a414a" stroke-width=".05" fill="#3a414a"/><path d="M361 640h38" stroke="#3a414a" fill="none"/><path d="M361 640.48h-.5v-.96h.5zM399.5 640l.02.48H399v-.96h.53z" stroke="#3a414a" stroke-width=".05" fill="#3a414a"/><path d="M481 640h38" stroke="#3a414a" fill="none"/><path d="M481 640.48h-.53l.03-.47-.02-.48h.53zM519.5 640.48h-.5v-.96h.5z" stroke="#3a414a" stroke-width=".05" fill="#3a414a"/><path d="M799 640h-38" stroke="#3a414a" fill="none"/><path d="M799.5 640l.02.48H799v-.96h.53zM761 640.48h-.5v-.96h.5z" stroke="#3a414a" stroke-width=".05" fill="#3a414a"/><path d="M919 640h-38" stroke="#3a414a" fill="none"/><path d="M919.5 640.48h-.5v-.96h.5zM881 640.48h-.53l.03-.47-.02-.48h.53z" stroke="#3a414a" stroke-width=".05" fill="#3a414a"/><path d="M1119 640h-38" stroke="#3a414a" fill="none"/><path d="M1119.5 640.48h-.5v-.96h.5zM1081 640.48h-.5v-.96h.5z" stroke="#3a414a" stroke-width=".05" fill="#3a414a"/><path d="M161 880h38" stroke="#3a414a" fill="none"/><path d="M161 880.48h-.5v-.96h.5zM199.5 880.48h-.5v-.96h.5z" stroke="#3a414a" stroke-width=".05" fill="#3a414a"/><path d="M361 880h38" stroke="#3a414a" fill="none"/><path d="M361 880.48h-.5v-.96h.5zM399.5 880l.02.48H399v-.96h.53z" stroke="#3a414a" stroke-width=".05" fill="#3a414a"/><path d="M481 880h38" stroke="#3a414a" fill="none"/><path d="M481 880.48h-.53l.03-.47-.02-.48h.53zM519.5 880.48h-.5v-.96h.5z" stroke="#3a414a" stroke-width=".05" fill="#3a414a"/><path d="M799 880h-38" stroke="#3a414a" fill="none"/><path d="M799.5 880l.02.48H799v-.96h.53zM761 880.48h-.5v-.96h.5z" stroke="#3a414a" stroke-width=".05" fill="#3a414a"/><path d="M919 880h-38" stroke="#3a414a" fill="none"/><path d="M919.5 880.48h-.5v-.96h.5zM881 880.48h-.53l.03-.47-.02-.48h.53z" stroke="#3a414a" stroke-width=".05" fill="#3a414a"/><path d="M1119 880h-38" stroke="#3a414a" fill="none"/><path d="M1119.5 880.48h-.5v-.96h.5zM1081 880.48h-.5v-.96h.5z" stroke="#3a414a" stroke-width=".05" fill="#3a414a"/><path d="M-160 986a6 6 0 0 1 6-6H14a6 6 0 0 1 6 6v48a6 6 0 0 1-6 6h-168a6 6 0 0 1-6-6z" fill="none"/><g><use xlink:href="#p" transform="matrix(1,0,0,1,-160,980) translate(12.3611111111111 36.896701388888886)"/></g><defs><path fill="#3a414a" d="M584-1331c-162 0-287 69-287 219 0 118 43 164 123 214 44 28 112 56 203 89 153 55 259 113 317 176s86 144 86 244c-1 276-228 409-520 409-173 0-307-22-400-67v-164c109 46 257 81 406 82 199 1 342-68 342-244 0-120-47-164-132-214-47-28-121-58-218-93-136-49-234-106-292-173s-87-154-87-261c-1-239 209-369 463-369 145 0 279 27 401 80l-53 148c-121-51-238-76-352-76" id="q"/><path fill="#3a414a" d="M354-322c-2 123 60 204 176 205 51 1 114-10 150-20v127C647 7 557 20 506 20 294 20 188-92 188-315v-652H31v-80l157-69 70-234h96v254h318v129H354v645" id="r"/><path fill="#3a414a" d="M588-1114c260 0 384 106 385 366V0H850l-33-156h-8C708-34 639 17 442 20 231 23 94-94 94-303c0-221 177-337 531-348l186-6c11-203-40-320-233-320-91 0-195 28-310 84l-51-127c97-53 229-94 371-94zM268-301c-1 123 81 184 207 184 203 0 334-120 332-323v-99c-257 14-539-7-539 238" id="s"/><path fill="#3a414a" d="M995-51C878-2 799 19 639 20c-329 2-524-221-524-559 0-326 172-577 481-577 278 0 451 210 446 493v105H287c4 242 121 392 358 393 118 0 235-25 350-74v148zM864-653c2-195-85-324-270-324-190 0-288 139-303 324h573" id="t"/><g id="a"><use transform="matrix(0.010850694444444444,0,0,0.010850694444444444,0,0)" xlink:href="#q"/><use transform="matrix(0.010850694444444444,0,0,0.010850694444444444,12.196180555555555,0)" xlink:href="#r"/><use transform="matrix(0.010850694444444444,0,0,0.010850694444444444,20.04123263888889,0)" xlink:href="#s"/><use transform="matrix(0.010850694444444444,0,0,0.010850694444444444,32.400173611111114,0)" xlink:href="#r"/><use transform="matrix(0.010850694444444444,0,0,0.010850694444444444,40.24522569444445,0)" xlink:href="#t"/></g><path fill="#3a414a" d="M715 0H553c4-427-9-874 8-1288-79 77-94 81-285 239l-88-114 387-299h140V0" id="u"/><g id="b"><use transform="matrix(0.010850694444444444,0,0,0.010850694444444444,0,0)" xlink:href="#q"/><use transform="matrix(0.008680555555555556,0,0,0.008680555555555556,12.196180555555555,0)" xlink:href="#u"/></g><path fill="#3a414a" d="M125-733c6-459 248-750 704-750 153 0 287 28 402 84l-72 146c-111-52-221-78-332-78-334-1-520 251-520 600 0 361 171 600 518 600 102 0 218-18 349-55v149C1073 1 948 20 799 20c-445 1-680-294-674-753" id="v"/><path fill="#3a414a" d="M621-1116c316 0 501 239 501 567 0 339-180 575-508 569S119-212 115-549c-4-339 178-567 506-567zm-5 141c-239 0-329 168-329 426 0 255 93 430 331 430s332-174 332-430-95-426-334-426" id="w"/><path fill="#3a414a" d="M1368-1116c259 2 372 131 371 401V0h-166v-713c0-168-66-262-230-262-221 0-303 131-303 363V0H874v-713c-1-169-66-262-231-262-235 0-301 142-301 400V0H176v-1096h135l27 150h8c56-99 174-170 324-170 171 0 283 62 336 186h8c60-108 189-187 354-186" id="x"/><path fill="#3a414a" d="M1141-549c0 329-147 569-455 569-159 0-273-61-344-161h-12c23 199 7 418 12 633H176v-1588h135l23 150h8c77-108 175-170 344-170 311 0 455 237 455 567zm-172-2c0-242-88-424-307-424-256 0-323 154-320 426 3 280 68 430 324 430 213 0 303-196 303-432" id="y"/><path fill="#3a414a" d="M694-1116c270 0 399 125 398 401V0H926v-709c-1-177-76-266-252-266-250 0-332 133-332 400V0H176v-1096h135l27 150h8c62-101 190-170 348-170" id="z"/><g id="c"><use transform="matrix(0.010850694444444444,0,0,0.010850694444444444,0,0)" xlink:href="#v"/><use transform="matrix(0.010850694444444444,0,0,0.010850694444444444,14.019097222222221,0)" xlink:href="#w"/><use transform="matrix(0.010850694444444444,0,0,0.010850694444444444,27.44140625,0)" xlink:href="#x"/><use transform="matrix(0.010850694444444444,0,0,0.010850694444444444,48.111979166666664,0)" xlink:href="#y"/><use transform="matrix(0.010850694444444444,0,0,0.010850694444444444,61.72960069444444,0)" xlink:href="#w"/><use transform="matrix(0.010850694444444444,0,0,0.010850694444444444,75.15190972222221,0)" xlink:href="#z"/><use transform="matrix(0.010850694444444444,0,0,0.010850694444444444,88.79123263888889,0)" xlink:href="#t"/><use transform="matrix(0.010850694444444444,0,0,0.010850694444444444,101.25868055555556,0)" xlink:href="#z"/><use transform="matrix(0.010850694444444444,0,0,0.010850694444444444,114.89800347222224,0)" xlink:href="#r"/></g><g id="d"><use transform="matrix(0.010850694444444444,0,0,0.010850694444444444,0,0)" xlink:href="#v"/><use transform="matrix(0.008680555555555556,0,0,0.008680555555555556,14.019097222222221,0)" xlink:href="#u"/></g><path fill="#3a414a" d="M557-1483c261-2 449 121 449 365 0 202-125 312-301 348v8c212 25 346 130 346 348 0 303-232 437-557 434C328 19 210-2 94-59v-158c108 55 257 96 406 96 253 0 379-99 379-297 0-177-139-266-418-266H317v-143h146c207 3 370-92 371-285 1-150-117-233-273-229-171 4-249 44-375 122l-84-112c109-87 268-150 455-152" id="A"/><g id="e"><use transform="matrix(0.010850694444444444,0,0,0.010850694444444444,0,0)" xlink:href="#q"/><use transform="matrix(0.008680555555555556,0,0,0.008680555555555556,12.196180555555555,0)" xlink:href="#A"/></g><g id="f"><use transform="matrix(0.010850694444444444,0,0,0.010850694444444444,0,0)" xlink:href="#v"/><use transform="matrix(0.008680555555555556,0,0,0.008680555555555556,14.019097222222221,0)" xlink:href="#A"/></g><path fill="#3a414a" d="M512-123c223 0 372-106 371-323 0-204-125-306-375-306-63 0-148 10-254 29l-86-55 55-684h727v153H365l-37 439c77-15 153-23 229-23 289 0 496 151 496 428 0 312-221 485-543 485-165 0-290-26-377-79v-160c85 57 241 96 379 96" id="B"/><g id="g"><use transform="matrix(0.010850694444444444,0,0,0.010850694444444444,0,0)" xlink:href="#q"/><use transform="matrix(0.008680555555555556,0,0,0.008680555555555556,12.196180555555555,0)" xlink:href="#B"/></g><g id="h"><use transform="matrix(0.010850694444444444,0,0,0.010850694444444444,0,0)" xlink:href="#v"/><use transform="matrix(0.008680555555555556,0,0,0.008680555555555556,14.019097222222221,0)" xlink:href="#B"/></g><path fill="#3a414a" d="M559-1483c258 0 441 142 440 389 0 93-26 184-78 275-109 192-433 475-612 657v8h752V0H100v-143c177-182 479-462 617-641 67-87 110-168 112-303 2-158-106-258-268-254-165 4-240 52-354 139l-88-113c135-112 281-168 440-168" id="C"/><g id="i"><use transform="matrix(0.010850694444444444,0,0,0.010850694444444444,0,0)" xlink:href="#q"/><use transform="matrix(0.008680555555555556,0,0,0.008680555555555556,12.196180555555555,0)" xlink:href="#C"/></g><g id="j"><use transform="matrix(0.010850694444444444,0,0,0.010850694444444444,0,0)" xlink:href="#v"/><use transform="matrix(0.008680555555555556,0,0,0.008680555555555556,14.019097222222221,0)" xlink:href="#C"/></g><path fill="#3a414a" d="M1198-240c-25-390-10-810-14-1222h159V0h-194L350-1227h-8c30 405 10 805 16 1227H201v-1462h192l797 1222h8" id="D"/><path fill="#3a414a" d="M1169-178c39-215 75-309 230-918h172L1268 0h-197c-99-332-184-548-272-911h-8C712-564 610-319 514 0H322L23-1096h174c71 275 124 485 161 629s59 241 64 291h8c76-328 186-611 279-920h180l196 629c37 115 63 211 76 289h8" id="E"/><path fill="#3a414a" d="M340-893c80-153 237-262 467-211l-23 154c-45-10-85-15-120-15-184-3-322 182-322 377V0H176v-1096h137l19 203h8" id="F"/><path fill="#3a414a" d="M340-561c134-179 332-366 485-535h197L578-629 1053 0H852L465-518 340-410V0H176v-1556h164c-4 336 9 669-8 995h8" id="G"/><g id="k"><use transform="matrix(0.010850694444444444,0,0,0.010850694444444444,0,0)" xlink:href="#D"/><use transform="matrix(0.010850694444444444,0,0,0.010850694444444444,16.75347222222222,0)" xlink:href="#t"/><use transform="matrix(0.010850694444444444,0,0,0.010850694444444444,29.22092013888889,0)" xlink:href="#r"/><use transform="matrix(0.010850694444444444,0,0,0.010850694444444444,37.06597222222222,0)" xlink:href="#E"/><use transform="matrix(0.010850694444444444,0,0,0.010850694444444444,54.35112847222222,0)" xlink:href="#w"/><use transform="matrix(0.010850694444444444,0,0,0.010850694444444444,67.7734375,0)" xlink:href="#F"/><use transform="matrix(0.010850694444444444,0,0,0.010850694444444444,76.84461805555556,0)" xlink:href="#G"/></g><path fill="#3a414a" d="M1130-336H913V0H754v-336H43v-145l694-989h176v983h217v151zM754-487c2-284-7-530 10-809h-8c-32 64-61 118-90 159L209-487h545" id="H"/><g id="l"><use transform="matrix(0.010850694444444444,0,0,0.010850694444444444,0,0)" xlink:href="#q"/><use transform="matrix(0.008680555555555556,0,0,0.008680555555555556,12.196180555555555,0)" xlink:href="#H"/></g><g id="m"><use transform="matrix(0.010850694444444444,0,0,0.010850694444444444,0,0)" xlink:href="#v"/><use transform="matrix(0.008680555555555556,0,0,0.008680555555555556,14.019097222222221,0)" xlink:href="#H"/></g><path fill="#3a414a" d="M610 20c-332-4-493-282-493-645 0-287 55-503 167-645s277-213 496-213c75 0 135 6 178 19v143c-51-17-110-25-176-25-157 0-276 48-359 146S295-948 287-739h12c73-115 189-172 348-172 263 0 424 177 424 442 0 293-175 492-461 489zM287-506c0 212 112 385 321 385 200 0 299-137 299-348 0-191-98-312-291-311-128 1-231 59-284 139-30 43-45 88-45 135" id="I"/><g id="n"><use transform="matrix(0.010850694444444444,0,0,0.010850694444444444,0,0)" xlink:href="#q"/><use transform="matrix(0.008680555555555556,0,0,0.008680555555555556,12.196180555555555,0)" xlink:href="#I"/></g><g id="o"><use transform="matrix(0.010850694444444444,0,0,0.010850694444444444,0,0)" xlink:href="#v"/><use transform="matrix(0.008680555555555556,0,0,0.008680555555555556,14.019097222222221,0)" xlink:href="#I"/></g><path fill="#3a414a" d="M115-545c0-330 146-571 454-571 149 0 263 54 342 162h13c-20-185-8-401-11-602h166V0H944l-22-147h-9C836-36 722 20 569 20c-309 0-454-234-454-565zm172 2c0 249 78 424 303 424 257 0 327-150 323-426-4-282-68-432-325-432-220 0-301 191-301 434" id="J"/><path fill="#3a414a" d="M342 0H176v-1096h166V0zm-82-1282c-61 0-98-43-98-111 0-69 36-110 98-110 59 0 98 43 98 110s-39 111-98 111" id="K"/><path fill="#3a414a" d="M502-977c-130 0-238 32-238 139 0 75 39 101 95 134 33 19 97 46 192 81 130 48 217 95 263 143s69 108 69 181C883-73 695 20 449 20 304 20 190-3 109-49v-154c91 47 216 86 344 86 149 0 270-36 270-168 0-43-21-76-55-109-56-55-367-158-434-208-74-55-128-109-128-225 0-327 490-342 754-217l-59 135c-110-45-210-68-299-68" id="L"/><path fill="#3a414a" d="M686 20c-159 0-273-61-344-161h-12L295 0H176v-1556h166c-2 198 6 423-8 606h8c77-109 192-164 344-164 310 0 455 234 455 565 0 329-147 569-455 569zm283-571c0-257-72-424-307-424-256 0-320 146-320 426s68 430 324 430c228 0 303-184 303-432" id="M"/><path fill="#3a414a" d="M563 20c-271 0-399-123-399-399v-717h168v711c1 177 76 266 252 266 250 0 331-135 331-401v-576h166V0H944l-24-147h-9C848-44 724 20 563 20" id="N"/><path fill="#3a414a" d="M84-473v-152h491v152H84" id="O"/><path fill="#3a414a" d="M526-162c88-293 120-356 326-934h178L559 152c-47 123-102 209-163 262-93 80-237 94-380 61V342c184 39 305-9 367-180L444 6 2-1096h178c103 283 263 645 338 934h8" id="P"/><g id="p"><use transform="matrix(0.008680555555555556,0,0,0.008680555555555556,0,0)" xlink:href="#J"/><use transform="matrix(0.008680555555555556,0,0,0.008680555555555556,10.894097222222223,0)" xlink:href="#K"/><use transform="matrix(0.008680555555555556,0,0,0.008680555555555556,15.390625,0)" xlink:href="#L"/><use transform="matrix(0.008680555555555556,0,0,0.008680555555555556,23.87152777777778,0)" xlink:href="#r"/><use transform="matrix(0.008680555555555556,0,0,0.008680555555555556,30.147569444444446,0)" xlink:href="#F"/><use transform="matrix(0.008680555555555556,0,0,0.008680555555555556,37.40451388888889,0)" xlink:href="#K"/><use transform="matrix(0.008680555555555556,0,0,0.008680555555555556,41.90104166666667,0)" xlink:href="#M"/><use transform="matrix(0.008680555555555556,0,0,0.008680555555555556,52.79513888888889,0)" xlink:href="#N"/><use transform="matrix(0.008680555555555556,0,0,0.008680555555555556,63.70659722222223,0)" xlink:href="#r"/><use transform="matrix(0.008680555555555556,0,0,0.008680555555555556,69.9826388888889,0)" xlink:href="#t"/><use transform="matrix(0.008680555555555556,0,0,0.008680555555555556,79.95659722222223,0)" xlink:href="#J"/><use transform="matrix(0.008680555555555556,0,0,0.008680555555555556,90.85069444444447,0)" xlink:href="#O"/><use transform="matrix(0.008680555555555556,0,0,0.008680555555555556,96.57118055555557,0)" xlink:href="#L"/><use transform="matrix(0.008680555555555556,0,0,0.008680555555555556,105.05208333333334,0)" xlink:href="#P"/><use transform="matrix(0.008680555555555556,0,0,0.008680555555555556,114.01041666666667,0)" xlink:href="#L"/><use transform="matrix(0.008680555555555556,0,0,0.008680555555555556,122.49131944444444,0)" xlink:href="#r"/><use transform="matrix(0.008680555555555556,0,0,0.008680555555555556,128.76736111111111,0)" xlink:href="#t"/><use transform="matrix(0.008680555555555556,0,0,0.008680555555555556,138.74131944444446,0)" xlink:href="#x"/></g></defs></g></svg>