<?xml version="1.0" encoding="UTF-8" standalone="no"?>
<!DOCTYPE svg PUBLIC "-//W3C//DTD SVG 1.1//EN" "http://www.w3.org/Graphics/SVG/1.1/DTD/svg11.dtd">
<svg xmlns:xl="http://www.w3.org/1999/xlink" version="1.1" xmlns:dc="http://purl.org/dc/elements/1.1/" xmlns="http://www.w3.org/2000/svg" viewBox="-251 -64.5 802 879" width="802" height="879">
  <defs>
    <marker orient="auto" overflow="visible" markerUnits="strokeWidth" id="FilledArrow_Marker" stroke-linejoin="miter" stroke-miterlimit="10" viewBox="-1 -4 10 8" markerWidth="10" markerHeight="8" color="#353f58">
      <g>
        <path d="M 8 0 L 0 -3 L 0 3 Z" fill="currentColor" stroke="currentColor" stroke-width="1"/>
      </g>
    </marker>
    <marker orient="auto" overflow="visible" markerUnits="strokeWidth" id="FilledArrow_Marker_2" stroke-linejoin="miter" stroke-miterlimit="10" viewBox="-1 -4 10 8" markerWidth="10" markerHeight="8" color="#353f58">
      <g>
        <path d="M 8 0 L 0 -3 L 0 3 Z" fill="currentColor" stroke="currentColor" stroke-width="1"/>
      </g>
    </marker>
    <marker orient="auto" overflow="visible" markerUnits="strokeWidth" id="FilledArrow_Marker_3" stroke-linejoin="miter" stroke-miterlimit="10" viewBox="-1 -4 10 8" markerWidth="10" markerHeight="8" color="black">
      <g>
        <path d="M 8 0 L 0 -3 L 0 3 Z" fill="currentColor" stroke="currentColor" stroke-width="1"/>
      </g>
    </marker>
  </defs>
  <g id="Canvas_2" stroke="none" stroke-opacity="1" fill="none" fill-opacity="1" stroke-dasharray="none">
    <title>Canvas 2</title>
    <rect fill="white" x="-251" y="-64.5" width="802" height="879"/>
    <g id="Canvas_2_Layer_1">
      <title>Layer 1</title>
      <g id="Graphic_10">
        <path d="M -16 -25 L 316 -25 C 320.97056 -25 325 -20.970563 325 -16 L 325 316 C 325 320.97056 320.97056 325 316 325 L -16 325 C -20.970563 325 -25 320.97056 -25 316 L -25 -16 C -25 -20.970563 -20.970563 -25 -16 -25 Z" fill="white"/>
        <path d="M -16 -25 L 316 -25 C 320.97056 -25 325 -20.970563 325 -16 L 325 316 C 325 320.97056 320.97056 325 316 325 L -16 325 C -20.970563 325 -25 320.97056 -25 316 L -25 -16 C -25 -20.970563 -20.970563 -25 -16 -25 Z" stroke="#353f58" stroke-linecap="round" stroke-linejoin="round" stroke-width="2"/>
      </g>
      <g id="Line_8">
        <path d="M 125 100 L 125 140 C 125 145.52285 120.52285 150 115 150 L 60 150 C 54.47715 150 50 154.47715 50 160 L 50 190.1" marker-end="url(#FilledArrow_Marker)" stroke="#353f58" stroke-linecap="round" stroke-linejoin="round" stroke-width="1"/>
      </g>
      <g id="Line_9">
        <path d="M 175 100 L 175 140 C 175 145.52285 179.47715 150 185 150 L 240 150 C 245.52285 150 250 154.47715 250 160 L 250 190.1" marker-end="url(#FilledArrow_Marker)" stroke="#353f58" stroke-linecap="round" stroke-linejoin="round" stroke-width="1"/>
      </g>
      <g id="Graphic_4">
        <path d="M 9 200 L 91 200 C 95.97056 200 100 204.02944 100 209 L 100 291 C 100 295.97056 95.97056 300 91 300 L 9 300 C 4.0294373 300 6087184e-22 295.97056 0 291 L 53290705e-22 209 C 5937789e-21 204.02944 4.0294373 200 9 200 Z" fill="white"/>
        <path d="M 9 200 L 91 200 C 95.97056 200 100 204.02944 100 209 L 100 291 C 100 295.97056 95.97056 300 91 300 L 9 300 C 4.0294373 300 6087184e-22 295.97056 0 291 L 53290705e-22 209 C 5937789e-21 204.02944 4.0294373 200 9 200 Z" stroke="#353f58" stroke-linecap="round" stroke-linejoin="round" stroke-width="1"/>
        <text transform="translate(5 240.5)" fill="#353f58">
          <tspan font-family="Montserrat" font-size="16" fill="#353f58" x="37.630708" y="15" xml:space="preserve">1.1</tspan>
        </text>
      </g>
      <g id="Graphic_5">
        <path d="M 209 200 L 291 200 C 295.97056 200 300 204.02944 300 209 L 300 291 C 300 295.97056 295.97056 300 291 300 L 209 300 C 204.02944 300 200 295.97056 200 291 L 200 209 C 200 204.02944 204.02944 200 209 200 Z" fill="white"/>
        <path d="M 209 200 L 291 200 C 295.97056 200 300 204.02944 300 209 L 300 291 C 300 295.97056 295.97056 300 291 300 L 209 300 C 204.02944 300 200 295.97056 200 291 L 200 209 C 200 204.02944 204.02944 200 209 200 Z" stroke="#353f58" stroke-linecap="round" stroke-linejoin="round" stroke-width="1"/>
        <text transform="translate(205 240.5)" fill="#353f58">
          <tspan font-family="Montserrat" font-size="16" fill="#353f58" x="35.79389" y="15" xml:space="preserve">1.2</tspan>
        </text>
      </g>
      <g id="Graphic_7">
        <path d="M 109 0 L 191 0 C 195.97056 3043592e-22 200 4.0294373 200 9 L 200 91 C 200 95.97056 195.97056 100 191 100 L 109 100 C 104.02944 100 100 95.97056 100 91 L 100 9 C 100 4.0294373 104.02944 -6087184e-22 109 0 Z" fill="#353f58"/>
        <path d="M 109 0 L 191 0 C 195.97056 3043592e-22 200 4.0294373 200 9 L 200 91 C 200 95.97056 195.97056 100 191 100 L 109 100 C 104.02944 100 100 95.97056 100 91 L 100 9 C 100 4.0294373 104.02944 -6087184e-22 109 0 Z" stroke="#353f58" stroke-linecap="round" stroke-linejoin="round" stroke-width="1"/>
        <text transform="translate(105 40.5)" fill="white">
          <tspan font-family="Montserrat" font-size="16" fill="white" x="42.114407" y="15" xml:space="preserve">1</tspan>
        </text>
      </g>
      <g id="Graphic_17">
        <path d="M -241 425 L 91 425 C 95.97056 425 100 429.02944 100 434 L 100 766 C 100 770.9706 95.97056 775 91 775 L -241 775 C -245.97056 775 -250 770.9706 -250 766 L -250 434 C -250 429.02944 -245.97056 425 -241 425 Z" fill="white"/>
        <path d="M -241 425 L 91 425 C 95.97056 425 100 429.02944 100 434 L 100 766 C 100 770.9706 95.97056 775 91 775 L -241 775 C -245.97056 775 -250 770.9706 -250 766 L -250 434 C -250 429.02944 -245.97056 425 -241 425 Z" stroke="#353f58" stroke-linecap="round" stroke-linejoin="round" stroke-width="2"/>
      </g>
      <g id="Line_16">
        <path d="M -100 550 L -100 590 C -100 595.52285 -104.47715 600 -110 600 L -165 600 C -170.52285 600 -175 604.47715 -175 610 L -175 640.1" marker-end="url(#FilledArrow_Marker_2)" stroke="#353f58" stroke-linecap="round" stroke-linejoin="round" stroke-width="1"/>
      </g>
      <g id="Line_15">
        <path d="M -50 550 L -50 590 C -50 595.52285 -45.52285 600 -40 600 L 15 600 C 20.522847 600 25 604.47715 25 610 L 25 640.1" marker-end="url(#FilledArrow_Marker_2)" stroke="#353f58" stroke-linecap="round" stroke-linejoin="round" stroke-width="1"/>
      </g>
      <g id="Graphic_14">
        <path d="M -216 650 L -134 650 C -129.02944 650 -125 654.0294 -125 659 L -125 741 C -125 745.9706 -129.02944 750 -134 750 L -216 750 C -220.97056 750 -225 745.9706 -225 741 L -225 659 C -225 654.0294 -220.97056 650 -216 650 Z" fill="white"/>
        <path d="M -216 650 L -134 650 C -129.02944 650 -125 654.0294 -125 659 L -125 741 C -125 745.9706 -129.02944 750 -134 750 L -216 750 C -220.97056 750 -225 745.9706 -225 741 L -225 659 C -225 654.0294 -220.97056 650 -216 650 Z" stroke="#353f58" stroke-linecap="round" stroke-linejoin="round" stroke-width="1"/>
        <text transform="translate(-220 690.5)" fill="#353f58">
          <tspan font-family="Montserrat" font-size="16" fill="#353f58" x="28.663308" y="15" xml:space="preserve">1.1.1.1</tspan>
        </text>
      </g>
      <g id="Graphic_13">
        <path d="M -16 650 L 66 650 C 70.97056 650 75 654.0294 75 659 L 75 741 C 75 745.9706 70.97056 750 66 750 L -16 750 C -20.970563 750 -25 745.9706 -25 741 L -25 659 C -25 654.0294 -20.970563 650 -16 650 Z" fill="white"/>
        <path d="M -16 650 L 66 650 C 70.97056 650 75 654.0294 75 659 L 75 741 C 75 745.9706 70.97056 750 66 750 L -16 750 C -20.970563 750 -25 745.9706 -25 741 L -25 659 C -25 654.0294 -20.970563 650 -16 650 Z" stroke="#353f58" stroke-linecap="round" stroke-linejoin="round" stroke-width="1"/>
        <text transform="translate(-20 690.5)" fill="#353f58">
          <tspan font-family="Montserrat" font-size="16" fill="#353f58" x="26.82649" y="15" xml:space="preserve">1.1.1.2</tspan>
        </text>
      </g>
      <g id="Graphic_12">
        <path d="M -116 450 L -34 450 C -29.029437 450 -25 454.02944 -25 459 L -25 541 C -25 545.97056 -29.029437 550 -34 550 L -116 550 C -120.97056 550 -125 545.97056 -125 541 L -125 459 C -125 454.02944 -120.97056 450 -116 450 Z" fill="#353f58"/>
        <path d="M -116 450 L -34 450 C -29.029437 450 -25 454.02944 -25 459 L -25 541 C -25 545.97056 -29.029437 550 -34 550 L -116 550 C -120.97056 550 -125 545.97056 -125 541 L -125 459 C -125 454.02944 -120.97056 450 -116 450 Z" stroke="#353f58" stroke-linecap="round" stroke-linejoin="round" stroke-width="1"/>
        <text transform="translate(-120 490.5)" fill="white">
          <tspan font-family="Montserrat" font-size="16" fill="white" x="33.147008" y="15" xml:space="preserve">1.1.1</tspan>
        </text>
      </g>
      <g id="Graphic_25">
        <path d="M 209 425 L 541 425 C 545.97056 425 550 429.02944 550 434 L 550 766 C 550 770.9706 545.97056 775 541 775 L 209 775 C 204.02944 775 200 770.9706 200 766 L 200 434 C 200 429.02944 204.02944 425 209 425 Z" fill="white"/>
        <path d="M 209 425 L 541 425 C 545.97056 425 550 429.02944 550 434 L 550 766 C 550 770.9706 545.97056 775 541 775 L 209 775 C 204.02944 775 200 770.9706 200 766 L 200 434 C 200 429.02944 204.02944 425 209 425 Z" stroke="#353f58" stroke-linecap="round" stroke-linejoin="round" stroke-width="2"/>
      </g>
      <g id="Line_24">
        <path d="M 350 550 L 350 590 C 350 595.52285 345.52285 600 340 600 L 285 600 C 279.47715 600 275 604.47715 275 610 L 275 640.1" marker-end="url(#FilledArrow_Marker_2)" stroke="#353f58" stroke-linecap="round" stroke-linejoin="round" stroke-width="1"/>
      </g>
      <g id="Line_23">
        <path d="M 400 550 L 400 590 C 400 595.52285 404.47715 600 410 600 L 465 600 C 470.52285 600 475 604.47715 475 610 L 475 640.1" marker-end="url(#FilledArrow_Marker_2)" stroke="#353f58" stroke-linecap="round" stroke-linejoin="round" stroke-width="1"/>
      </g>
      <g id="Graphic_22">
        <path d="M 234 650 L 316 650 C 320.97056 650 325 654.0294 325 659 L 325 741 C 325 745.9706 320.97056 750 316 750 L 234 750 C 229.02944 750 225 745.9706 225 741 L 225 659 C 225 654.0294 229.02944 650 234 650 Z" fill="white"/>
        <path d="M 234 650 L 316 650 C 320.97056 650 325 654.0294 325 659 L 325 741 C 325 745.9706 320.97056 750 316 750 L 234 750 C 229.02944 750 225 745.9706 225 741 L 225 659 C 225 654.0294 229.02944 650 234 650 Z" stroke="#353f58" stroke-linecap="round" stroke-linejoin="round" stroke-width="1"/>
        <text transform="translate(230 690.5)" fill="#353f58">
          <tspan font-family="Montserrat" font-size="16" fill="#353f58" x="26.74649" y="15" xml:space="preserve">1.2.1.1</tspan>
        </text>
      </g>
      <g id="Graphic_21">
        <path d="M 434 650 L 516 650 C 520.97056 650 525 654.0294 525 659 L 525 741 C 525 745.9706 520.97056 750 516 750 L 434 750 C 429.02944 750 425 745.9706 425 741 L 425 659 C 425 654.0294 429.02944 650 434 650 Z" fill="white"/>
        <path d="M 434 650 L 516 650 C 520.97056 650 525 654.0294 525 659 L 525 741 C 525 745.9706 520.97056 750 516 750 L 434 750 C 429.02944 750 425 745.9706 425 741 L 425 659 C 425 654.0294 429.02944 650 434 650 Z" stroke="#353f58" stroke-linecap="round" stroke-linejoin="round" stroke-width="1"/>
        <text transform="translate(430 690.5)" fill="#353f58">
          <tspan font-family="Montserrat" font-size="16" fill="#353f58" x="24.909675" y="15" xml:space="preserve">1.2.1.2</tspan>
        </text>
      </g>
      <g id="Graphic_20">
        <path d="M 334 450 L 416 450 C 420.97056 450 425 454.02944 425 459 L 425 541 C 425 545.97056 420.97056 550 416 550 L 334 550 C 329.02944 550 325 545.97056 325 541 L 325 459 C 325 454.02944 329.02944 450 334 450 Z" fill="#353f58"/>
        <path d="M 334 450 L 416 450 C 420.97056 450 425 454.02944 425 459 L 425 541 C 425 545.97056 420.97056 550 416 550 L 334 550 C 329.02944 550 325 545.97056 325 541 L 325 459 C 325 454.02944 329.02944 450 334 450 Z" stroke="#353f58" stroke-linecap="round" stroke-linejoin="round" stroke-width="1"/>
        <text transform="translate(330 490.5)" fill="white">
          <tspan font-family="Montserrat" font-size="16" fill="white" x="31.23019" y="15" xml:space="preserve">1.2.1</tspan>
        </text>
      </g>
      <g id="Line_27">
        <path d="M 50 300 L 50 365 C 50 370.52285 45.52285 375 40 375 L -65 375 C -70.52285 375 -75 379.47715 -75 385 L -75 440.1" marker-end="url(#FilledArrow_Marker_3)" stroke="black" stroke-linecap="round" stroke-linejoin="round" stroke-dasharray="4.0,4.0" stroke-width="1"/>
      </g>
      <g id="Line_28">
        <path d="M 250 300 L 250 365 C 250 370.52285 254.47715 375 260 375 L 365 375 C 370.52285 375 375 379.47715 375 385 L 375 440.1" marker-end="url(#FilledArrow_Marker_3)" stroke="black" stroke-linecap="round" stroke-linejoin="round" stroke-dasharray="4.0,4.0" stroke-width="1"/>
      </g>
      <g id="Graphic_30">
        <text transform="translate(136.92534 365.5)" fill="#353f58">
          <tspan font-family="Montserrat" font-size="16" fill="#353f58" x="0" y="15" xml:space="preserve">rpc</tspan>
        </text>
      </g>
      <g id="Graphic_36">
        <text transform="translate(135.99895 140.5)" fill="#353f58">
          <tspan font-family="Montserrat" font-size="16" fill="#353f58" x="52047255e-20" y="15" xml:space="preserve">run</tspan>
        </text>
      </g>
      <g id="Graphic_37">
        <text transform="translate(120.3803 -59.5)" fill="#353f58">
          <tspan font-family="Montserrat" font-size="16" fill="#353f58" x="0" y="15" xml:space="preserve">Node A</tspan>
        </text>
      </g>
      <g id="Graphic_40">
        <text transform="translate(-104.91385 790.5)" fill="#353f58">
          <tspan font-family="Montserrat" font-size="16" fill="#353f58" x="0" y="15" xml:space="preserve">Node B</tspan>
        </text>
      </g>
      <g id="Graphic_41">
        <text transform="translate(345.44856 790.5)" fill="#353f58">
          <tspan font-family="Montserrat" font-size="16" fill="#353f58" x="6679102e-19" y="15" xml:space="preserve">Node C</tspan>
        </text>
      </g>
    </g>
  </g>
</svg>
