<svg xmlns="http://www.w3.org/2000/svg" xmlns:xlink="http://www.w3.org/1999/xlink" xmlns:lucid="lucid" width="1601" height="481"><g transform="translate(-1659.5 920.5)" lucid:page-tab-id="0_0"><path d="M1500-1000h2000V0H1500z" fill="#fff"/><path d="M1660-920h1600v480H1660z" stroke="#000" stroke-opacity="0" fill="#fff"/><path d="M1660-494a6 6 0 0 1 6-6h108a6 6 0 0 1 6 6v48a6 6 0 0 1-6 6h-108a6 6 0 0 1-6-6z" fill="none"/><use xlink:href="#a" transform="matrix(1,0,0,1,1660,-500) translate(10.490451388888886 36.896701388888886)"/><path d="M2360-788a12 12 0 0 1 12-12h216a12 12 0 0 1 12 12v136a12 12 0 0 1-12 12h-216a12 12 0 0 1-12-12z" stroke="#3a414a" fill="#fff"/><use xlink:href="#b" transform="matrix(1,0,0,1,2365,-795) translate(73.73480902777777 70.62717013888889)"/><use xlink:href="#c" transform="matrix(1,0,0,1,2365,-795) translate(72.60633680555554 100.88975694444444)"/><path d="M2160-834a6 6 0 0 1 6-6h68a6 6 0 0 1 6 6v28a6 6 0 0 1-6 6h-68a6 6 0 0 1-6-6z" fill="none"/><use xlink:href="#d" transform="matrix(1,0,0,1,2160,-840) translate(12.044270833333336 26.46701388888889)"/><path d="M2720-834a6 6 0 0 1 6-6h68a6 6 0 0 1 6 6v28a6 6 0 0 1-6 6h-68a6 6 0 0 1-6-6z" fill="none"/><use xlink:href="#e" transform="matrix(1,0,0,1,2720,-840) translate(7.005208333333329 26.46701388888889)"/><path d="M2720-634a6 6 0 0 1 6-6h68a6 6 0 0 1 6 6v28a6 6 0 0 1-6 6h-68a6 6 0 0 1-6-6z" fill="none"/><use xlink:href="#f" transform="matrix(1,0,0,1,2720,-640) translate(13.906249999999996 26.46701388888889)"/><path d="M2616.88-780.3h347.76" stroke="#3a414a" fill="none"/><path d="M2602.12-780.3l14.26-4.63v9.26z" stroke="#3a414a" fill="#3a414a"/><path d="M2964.62-780.3h.5M2616.88-660.18h162.38l.02.02h178.26" stroke="#3a414a" fill="none"/><path d="M2602.12-660.18l14.26-4.63v9.26z" stroke="#3a414a" fill="#3a414a"/><path d="M2957.53-660.16h.5M2601-720h2.03m4.06 0h4.05m4.06 0h4.07m4.06 0h4.06m4.05 0h4.06m4.07 0h4.06m4.05 0h4.07m4.05 0h4.06m4.06 0h4.06m4.06 0h4.06m4.06 0h4.06m4.06 0h4.06m4.06 0h4.06m4.06 0h4.06m4.06 0h4.06m4.06 0h4.06m4.06 0h4.06m4.06 0h4.06m4.05 0h4.08m4.06 0h4.05m4.05 0h4.06m4.07 0h4.06m4.06 0h2.04v.04h.02v.02h2.06m4.07 0h4.05m4.07 0h4.07m4.06 0h4.07m4.07 0h4.06m4.07 0h4.07m4.07 0h4.07m4.07 0h4.08m4.06 0h4.07m4.08 0h4.07m4.07 0h4.07m4.05 0h4.07m4.07 0h4.06m4.07 0h4.07m4.07 0h4.06m4.07 0h4.07m4.07 0h4.07m4.07 0h4.07m4.07 0h4.08m4.07 0h4.07m4.07 0h2.02" stroke="#3a414a" fill="none"/><path d="M2601-719.52h-.5v-.96h.5z" stroke="#3a414a" stroke-width=".05" fill="#3a414a"/><path d="M2957.2-719.94l-14.28 4.64v-9.28z" stroke="#3a414a" fill="#3a414a"/><path d="M2343.12-780.93H2003.8" stroke="#3a414a" fill="none"/><path d="M2357.88-780.93l-14.26 4.64v-9.27z" stroke="#3a414a" fill="#3a414a"/><path d="M2003.82-780.93h-.52M2343.12-660.33H2000.9" stroke="#3a414a" fill="none"/><path d="M2357.88-660.33l-14.26 4.63v-9.27z" stroke="#3a414a" fill="#3a414a"/><path d="M2000.9-660.33h-.52M2359-720h-2.03m-4.06 0h-4.06m-4.06 0h-4.07m-4.05 0h-4.06m-4.08 0h-4.06m-4.06 0h-4.07m-4.06 0h-4.06m-4.06 0h-4.06m-4.06 0h-4.07m-4.06 0h-4.07m-4.07 0h-4.06m-4.06 0h-4.07m-4.06 0h-4.05m-4.07 0h-4.06m-4.07 0h-4.06m-4.07 0h-4.07m-4.06 0h-4.06m-4.07 0h-4.06m-4.05 0h-4.07m-4.06 0h-4.06m-4.07 0h-4.07m-4.06 0h-4.07m-4.06 0h-2.03v.02h-.02v.02h-2.05m-4.08 0h-4.07m-4.07 0h-4.06m-4.08 0h-4.07m-4.08 0h-4.07m-4.08 0h-4.07m-4.07 0h-4.08m-4.07 0h-4.07m-4.06 0h-4.08m-4.07 0h-4.08m-4.08 0h-4.07m-4.07 0h-4.07m-4.08 0h-4.07m-4.07 0h-4.06m-4.08 0h-4.07m-4.08 0h-4.07m-4.08 0h-4.07m-4.07 0h-4.08m-4.07 0h-4.07m-4.06 0h-4.08m-4.07 0h-2.05" stroke="#3a414a" fill="none"/><path d="M2359.5-719.52h-.5v-.96h.5z" stroke="#3a414a" stroke-width=".05" fill="#3a414a"/><path d="M2002.5-719.96l14.25-4.63v9.28z" stroke="#3a414a" fill="#3a414a"/><path d="M2160-634a6 6 0 0 1 6-6h68a6 6 0 0 1 6 6v28a6 6 0 0 1-6 6h-68a6 6 0 0 1-6-6z" fill="none"/><use xlink:href="#g" transform="matrix(1,0,0,1,2160,-640) translate(10.850694444444443 26.46701388888889)"/><path d="M2030.8-560.52h450.13a.13.13 0 0 1 .13.13.13.13 0 0 0 .13.14h450.1" stroke="#3a414a" fill="none"/><path d="M2030.98-560.52c0 8.3-6.7 15-15 15-8.28 0-15-6.7-15-15 0-8.28 6.72-15 15-15 8.3 0 15 6.72 15 15zM2961.14-560.26c0 8.3-6.72 15-15 15-8.28 0-15-6.7-15-15 0-8.28 6.72-15 15-15 8.28 0 15 6.72 15 15z" stroke="#3a414a" fill="#3a414a"/><path d="M2560.58-801v-39.5h-159.9v23.62" stroke="#3a414a" fill="none"/><path d="M2561.05-800.5h-.95v-.5h.95z" stroke="#3a414a" stroke-width=".05" fill="#3a414a"/><path d="M2400.7-802.12l-4.65-14.26h9.27z" stroke="#3a414a" fill="#3a414a"/><path d="M2440-894a6 6 0 0 1 6-6h68a6 6 0 0 1 6 6v28a6 6 0 0 1-6 6h-68a6 6 0 0 1-6-6z" fill="none"/><use xlink:href="#h" transform="matrix(1,0,0,1,2440,-900) translate(5.646701388888886 26.46701388888889)"/><path d="M1980-514a6 6 0 0 1 6-6h68a6 6 0 0 1 6 6v28a6 6 0 0 1-6 6h-68a6 6 0 0 1-6-6z" fill="none"/><use xlink:href="#i" transform="matrix(1,0,0,1,1980,-520) translate(-12.955729166666671 26.46701388888889)"/><path d="M2900-514a6 6 0 0 1 6-6h68a6 6 0 0 1 6 6v28a6 6 0 0 1-6 6h-68a6 6 0 0 1-6-6z" fill="none"/><use xlink:href="#j" transform="matrix(1,0,0,1,2900,-520) translate(-0.9027777777777857 26.46701388888889)"/><defs><path fill="#3a414a" d="M1141-549c0 329-147 569-455 569-159 0-273-61-344-161h-12c23 199 7 418 12 633H176v-1588h135l23 150h8c77-108 175-170 344-170 311 0 455 237 455 567zm-172-2c0-242-88-424-307-424-256 0-323 154-320 426 3 280 68 430 324 430 213 0 303-196 303-432" id="k"/><path fill="#3a414a" d="M340-893c80-153 237-262 467-211l-23 154c-45-10-85-15-120-15-184-3-322 182-322 377V0H176v-1096h137l19 203h8" id="l"/><path fill="#3a414a" d="M621-1116c316 0 501 239 501 567 0 339-180 575-508 569S119-212 115-549c-4-339 178-567 506-567zm-5 141c-239 0-329 168-329 426 0 255 93 430 331 430s332-174 332-430-95-426-334-426" id="m"/><path fill="#3a414a" d="M1368-1116c259 2 372 131 371 401V0h-166v-713c0-168-66-262-230-262-221 0-303 131-303 363V0H874v-713c-1-169-66-262-231-262-235 0-301 142-301 400V0H176v-1096h135l27 150h8c56-99 174-170 324-170 171 0 283 62 336 186h8c60-108 189-187 354-186" id="n"/><path fill="#3a414a" d="M342 0H176v-1096h166V0zm-82-1282c-61 0-98-43-98-111 0-69 36-110 98-110 59 0 98 43 98 110s-39 111-98 111" id="o"/><path fill="#3a414a" d="M502-977c-130 0-238 32-238 139 0 75 39 101 95 134 33 19 97 46 192 81 130 48 217 95 263 143s69 108 69 181C883-73 695 20 449 20 304 20 190-3 109-49v-154c91 47 216 86 344 86 149 0 270-36 270-168 0-43-21-76-55-109-56-55-367-158-434-208-74-55-128-109-128-225 0-327 490-342 754-217l-59 135c-110-45-210-68-299-68" id="p"/><path fill="#3a414a" d="M995-51C878-2 799 19 639 20c-329 2-524-221-524-559 0-326 172-577 481-577 278 0 451 210 446 493v105H287c4 242 121 392 358 393 118 0 235-25 350-74v148zM864-653c2-195-85-324-270-324-190 0-288 139-303 324h573" id="q"/><path fill="#3a414a" d="M84-473v-152h491v152H84" id="r"/><path fill="#3a414a" d="M588-1114c260 0 384 106 385 366V0H850l-33-156h-8C708-34 639 17 442 20 231 23 94-94 94-303c0-221 177-337 531-348l186-6c11-203-40-320-233-320-91 0-195 28-310 84l-51-127c97-53 229-94 371-94zM268-301c-1 123 81 184 207 184 203 0 334-120 332-323v-99c-257 14-539-7-539 238" id="s"/><g id="a"><use transform="matrix(0.008680555555555556,0,0,0.008680555555555556,0,0)" xlink:href="#k"/><use transform="matrix(0.008680555555555556,0,0,0.008680555555555556,10.894097222222223,0)" xlink:href="#l"/><use transform="matrix(0.008680555555555556,0,0,0.008680555555555556,17.79513888888889,0)" xlink:href="#m"/><use transform="matrix(0.008680555555555556,0,0,0.008680555555555556,28.53298611111111,0)" xlink:href="#n"/><use transform="matrix(0.008680555555555556,0,0,0.008680555555555556,45.06944444444445,0)" xlink:href="#o"/><use transform="matrix(0.008680555555555556,0,0,0.008680555555555556,49.565972222222236,0)" xlink:href="#p"/><use transform="matrix(0.008680555555555556,0,0,0.008680555555555556,58.04687500000001,0)" xlink:href="#q"/><use transform="matrix(0.008680555555555556,0,0,0.008680555555555556,68.02083333333334,0)" xlink:href="#r"/><use transform="matrix(0.008680555555555556,0,0,0.008680555555555556,73.74131944444446,0)" xlink:href="#s"/><use transform="matrix(0.008680555555555556,0,0,0.008680555555555556,83.62847222222223,0)" xlink:href="#k"/><use transform="matrix(0.008680555555555556,0,0,0.008680555555555556,94.52256944444447,0)" xlink:href="#o"/></g><path fill="#3a414a" d="M649-1462c450-4 719 268 719 717 0 484-276 748-762 745H201v-1462h448zM578-147c400 1 610-197 610-592 1-379-192-576-570-576H371v1168h207" id="t"/><path fill="#3a414a" d="M563 20c-271 0-399-123-399-399v-717h168v711c1 177 76 266 252 266 250 0 331-135 331-401v-576h166V0H944l-24-147h-9C848-44 724 20 563 20" id="u"/><path fill="#3a414a" d="M686 20c-159 0-273-61-344-161h-12L295 0H176v-1556h166c-2 198 6 423-8 606h8c77-109 192-164 344-164 310 0 455 234 455 565 0 329-147 569-455 569zm283-571c0-257-72-424-307-424-256 0-320 146-320 426s68 430 324 430c228 0 303-184 303-432" id="v"/><path fill="#3a414a" d="M342 0H176v-1556h166V0" id="w"/><g id="b"><use transform="matrix(0.010850694444444444,0,0,0.010850694444444444,0,0)" xlink:href="#t"/><use transform="matrix(0.010850694444444444,0,0,0.010850694444444444,16.200086805555554,0)" xlink:href="#u"/><use transform="matrix(0.010850694444444444,0,0,0.010850694444444444,29.83940972222222,0)" xlink:href="#l"/><use transform="matrix(0.010850694444444444,0,0,0.010850694444444444,38.46571180555556,0)" xlink:href="#s"/><use transform="matrix(0.010850694444444444,0,0,0.010850694444444444,50.82465277777778,0)" xlink:href="#v"/><use transform="matrix(0.010850694444444444,0,0,0.010850694444444444,64.44227430555556,0)" xlink:href="#w"/><use transform="matrix(0.010850694444444444,0,0,0.010850694444444444,70.06293402777779,0)" xlink:href="#q"/></g><path fill="#3a414a" d="M1128-1036c0 321-241 464-585 461H371V0H201v-1462h379c365 0 548 142 548 426zm-176 8c0-218-150-286-391-287H371v594h153c270-3 428-62 428-307" id="x"/><g id="c"><use transform="matrix(0.010850694444444444,0,0,0.010850694444444444,0,0)" xlink:href="#x"/><use transform="matrix(0.010850694444444444,0,0,0.010850694444444444,13.37890625,0)" xlink:href="#l"/><use transform="matrix(0.010850694444444444,0,0,0.010850694444444444,22.005208333333336,0)" xlink:href="#m"/><use transform="matrix(0.010850694444444444,0,0,0.010850694444444444,35.427517361111114,0)" xlink:href="#n"/><use transform="matrix(0.010850694444444444,0,0,0.010850694444444444,56.09809027777778,0)" xlink:href="#o"/><use transform="matrix(0.010850694444444444,0,0,0.010850694444444444,61.71875,0)" xlink:href="#p"/><use transform="matrix(0.010850694444444444,0,0,0.010850694444444444,72.31987847222223,0)" xlink:href="#q"/></g><path fill="#3a414a" d="M783 20c-382 0-661-292-661-764 0-473 279-766 661-766 302 0 548 182 601 489h-190c-42-204-217-313-411-313-268 0-476 208-476 590 0 381 209 588 476 588 195 0 369-110 411-313h190c-52 303-296 489-601 489" id="y"/><path fill="#3a414a" d="M158 0v-1118h174v172h12c41-113 157-188 290-188 26 0 70 2 91 3v181c-11-2-60-10-108-10-161 0-279 109-279 260V0H158" id="z"/><path fill="#3a414a" d="M628 24c-324 0-524-230-524-574 0-343 198-582 503-582 237 0 487 146 487 559v75H286c9 234 145 362 343 362 132 0 231-58 273-172l174 48C1024-91 857 24 628 24zM287-650h624c-17-190-120-322-304-322-192 0-309 151-320 322" id="A"/><path fill="#3a414a" d="M471 26C259 26 90-98 90-318c0-256 228-303 435-329 202-27 287-16 287-108 0-139-79-219-234-219-161 0-248 86-283 164l-173-57c86-203 278-265 451-265 150 0 419 46 419 395V0H815v-152h-12C765-73 660 26 471 26zm31-159c199 0 310-134 310-271v-155c-30 35-226 55-295 64-131 17-246 59-246 186 0 116 97 176 231 176" id="B"/><path fill="#3a414a" d="M598-1118v154H368v674c0 100 37 144 132 144 23 0 62-6 92-12L629-6c-37 13-88 20-134 20-193 0-307-107-307-290v-688H20v-154h168v-266h180v266h230" id="C"/><g id="d"><use transform="matrix(0.008680555555555556,0,0,0.008680555555555556,0,0)" xlink:href="#y"/><use transform="matrix(0.008680555555555556,0,0,0.008680555555555556,12.986111111111112,0)" xlink:href="#z"/><use transform="matrix(0.008680555555555556,0,0,0.008680555555555556,19.383680555555557,0)" xlink:href="#A"/><use transform="matrix(0.008680555555555556,0,0,0.008680555555555556,29.921875,0)" xlink:href="#B"/><use transform="matrix(0.008680555555555556,0,0,0.008680555555555556,39.904513888888886,0)" xlink:href="#C"/><use transform="matrix(0.008680555555555556,0,0,0.008680555555555556,45.54687499999999,0)" xlink:href="#A"/></g><path fill="#3a414a" d="M180 0v-1490h510c348 0 508 194 508 460 0 198-88 351-276 417L1256 0h-220L726-579c-117 2-238 0-356 1V0H180zm190-747h312c235 0 327-108 327-283 0-177-92-293-329-293H370v576" id="D"/><path fill="#3a414a" d="M538 24C308 24 148-78 108-271l171-41c32 123 123 178 257 178 156 0 256-77 256-169 0-77-54-128-164-154l-186-44c-203-48-300-148-300-305 0-192 176-326 414-326 230 0 351 112 402 269l-163 42c-31-80-94-158-238-158-133 0-233 69-233 162 0 83 57 129 188 160l169 40c203 48 298 149 298 302 0 196-179 339-441 339" id="E"/><path fill="#3a414a" d="M613 24c-304 0-509-231-509-576 0-350 205-580 509-580 305 0 511 230 511 580 0 345-206 576-511 576zm0-161c226 0 329-195 329-415 0-222-103-419-329-419-223 0-326 196-326 419 0 220 103 415 326 415" id="F"/><path fill="#3a414a" d="M338-1490V0H158v-1490h180" id="G"/><path fill="#3a414a" d="M481 0L54-1118h197c107 314 236 620 325 951 87-331 217-637 324-951h197L670 0H481" id="H"/><g id="e"><use transform="matrix(0.008680555555555556,0,0,0.008680555555555556,0,0)" xlink:href="#D"/><use transform="matrix(0.008680555555555556,0,0,0.008680555555555556,11.180555555555559,0)" xlink:href="#A"/><use transform="matrix(0.008680555555555556,0,0,0.008680555555555556,21.545138888888893,0)" xlink:href="#E"/><use transform="matrix(0.008680555555555556,0,0,0.008680555555555556,30.92881944444445,0)" xlink:href="#F"/><use transform="matrix(0.008680555555555556,0,0,0.008680555555555556,41.58854166666667,0)" xlink:href="#G"/><use transform="matrix(0.008680555555555556,0,0,0.008680555555555556,45.980902777777786,0)" xlink:href="#H"/><use transform="matrix(0.008680555555555556,0,0,0.008680555555555556,55.62500000000001,0)" xlink:href="#A"/></g><path fill="#3a414a" d="M157-1118h181V80c1 225-123 350-364 338V252c126 9 184-48 183-172v-1198zm91-183c-68 0-125-53-125-119s57-119 125-119c69 0 126 53 126 119s-57 119-126 119" id="I"/><path fill="#3a414a" d="M613 24c-304 0-509-231-509-576 0-350 205-580 509-580 216 0 392 114 453 309l-173 49c-33-115-133-197-280-197-223 0-326 196-326 419 0 220 103 415 326 415 150 0 252-85 285-206l172 49C1010-95 832 24 613 24" id="J"/><g id="f"><use transform="matrix(0.008680555555555556,0,0,0.008680555555555556,0,0)" xlink:href="#D"/><use transform="matrix(0.008680555555555556,0,0,0.008680555555555556,11.180555555555559,0)" xlink:href="#A"/><use transform="matrix(0.008680555555555556,0,0,0.008680555555555556,21.545138888888893,0)" xlink:href="#I"/><use transform="matrix(0.008680555555555556,0,0,0.008680555555555556,25.85069444444445,0)" xlink:href="#A"/><use transform="matrix(0.008680555555555556,0,0,0.008680555555555556,36.215277777777786,0)" xlink:href="#J"/><use transform="matrix(0.008680555555555556,0,0,0.008680555555555556,46.371527777777786,0)" xlink:href="#C"/></g><path fill="#3a414a" d="M338-670V0H158v-1118h173l1 207c72-158 192-221 342-221 226 0 378 139 378 422V0H872v-695c0-172-96-275-252-275-161 0-282 109-282 300" id="K"/><g id="g"><use transform="matrix(0.008680555555555556,0,0,0.008680555555555556,0,0)" xlink:href="#y"/><use transform="matrix(0.008680555555555556,0,0,0.008680555555555556,12.986111111111112,0)" xlink:href="#B"/><use transform="matrix(0.008680555555555556,0,0,0.008680555555555556,22.96875,0)" xlink:href="#K"/><use transform="matrix(0.008680555555555556,0,0,0.008680555555555556,33.47222222222222,0)" xlink:href="#J"/><use transform="matrix(0.008680555555555556,0,0,0.008680555555555556,43.62847222222222,0)" xlink:href="#A"/><use transform="matrix(0.008680555555555556,0,0,0.008680555555555556,53.99305555555556,0)" xlink:href="#G"/></g><path fill="#3a414a" d="M98-1322v-168h1126v168H757V0H567v-1322H98" id="L"/><path fill="#3a414a" d="M158 0v-1118h180V0H158zm91-1301c-68 0-125-53-125-119s57-119 125-119c69 0 126 53 126 119s-57 119-126 119" id="M"/><path fill="#3a414a" d="M158 0v-1118h175l1 205c55-151 181-225 313-225 147 0 245 90 285 228 53-141 190-228 352-228 194 0 352 125 352 384V0h-181v-749c0-161-105-225-225-225-151 0-243 103-243 244V0H807v-767c0-124-93-207-219-207-131 0-250 92-250 270V0H158" id="N"/><path fill="#3a414a" d="M537 14c-226 0-379-139-379-422v-710h180v695c0 172 97 275 253 275 160 0 281-109 281-300v-670h181V0H879v-209C806-46 684 14 537 14" id="O"/><g id="h"><use transform="matrix(0.008680555555555556,0,0,0.008680555555555556,0,0)" xlink:href="#L"/><use transform="matrix(0.008680555555555556,0,0,0.008680555555555556,11.475694444444445,0)" xlink:href="#M"/><use transform="matrix(0.008680555555555556,0,0,0.008680555555555556,15.78125,0)" xlink:href="#N"/><use transform="matrix(0.008680555555555556,0,0,0.008680555555555556,31.354166666666668,0)" xlink:href="#A"/><use transform="matrix(0.008680555555555556,0,0,0.008680555555555556,41.71875,0)" xlink:href="#F"/><use transform="matrix(0.008680555555555556,0,0,0.008680555555555556,52.37847222222222,0)" xlink:href="#O"/><use transform="matrix(0.008680555555555556,0,0,0.008680555555555556,62.890625,0)" xlink:href="#C"/></g><path fill="#3a414a" d="M645 0H180v-1490h484c435 0 692 280 692 742 0 466-257 748-711 748zM370-168h263c363 0 539-218 539-580 0-358-176-574-521-574H370v1154" id="P"/><path fill="#3a414a" d="M409 0L70-1118h191c89 329 165 560 243 925 75-353 154-601 240-925h192c85 325 161 564 235 922 77-354 157-598 244-922h191L1267 0h-179c-86-307-176-590-250-913C763-588 675-308 588 0H409" id="Q"/><g id="i"><use transform="matrix(0.008680555555555556,0,0,0.008680555555555556,0,0)" xlink:href="#P"/><use transform="matrix(0.008680555555555556,0,0,0.008680555555555556,12.829861111111112,0)" xlink:href="#F"/><use transform="matrix(0.008680555555555556,0,0,0.008680555555555556,23.16840277777778,0)" xlink:href="#Q"/><use transform="matrix(0.008680555555555556,0,0,0.008680555555555556,37.71701388888889,0)" xlink:href="#K"/><use transform="matrix(0.008680555555555556,0,0,0.008680555555555556,48.220486111111114,0)" xlink:href="#E"/><use transform="matrix(0.008680555555555556,0,0,0.008680555555555556,57.60416666666667,0)" xlink:href="#C"/><use transform="matrix(0.008680555555555556,0,0,0.008680555555555556,63.42013888888889,0)" xlink:href="#z"/><use transform="matrix(0.008680555555555556,0,0,0.008680555555555556,69.81770833333334,0)" xlink:href="#A"/><use transform="matrix(0.008680555555555556,0,0,0.008680555555555556,80.35590277777779,0)" xlink:href="#B"/><use transform="matrix(0.008680555555555556,0,0,0.008680555555555556,90.33854166666667,0)" xlink:href="#N"/></g><path fill="#3a414a" d="M763 24c-353 0-583-224-583-531v-983h190v968c0 214 149 370 393 370 243 0 391-156 391-370v-968h190v983c0 307-230 531-581 531" id="R"/><path fill="#3a414a" d="M158 418v-1536h174v179h20c37-59 106-193 324-193 279 0 474 222 474 576 0 356-194 580-473 580-213 0-288-135-325-197h-14v591H158zm492-555c209 0 317-186 317-421 0-232-105-413-317-413-206 0-314 166-314 413 0 249 111 421 314 421" id="S"/><g id="j"><use transform="matrix(0.008680555555555556,0,0,0.008680555555555556,0,0)" xlink:href="#R"/><use transform="matrix(0.008680555555555556,0,0,0.008680555555555556,13.229166666666668,0)" xlink:href="#S"/><use transform="matrix(0.008680555555555556,0,0,0.008680555555555556,24.114583333333336,0)" xlink:href="#E"/><use transform="matrix(0.008680555555555556,0,0,0.008680555555555556,33.49826388888889,0)" xlink:href="#C"/><use transform="matrix(0.008680555555555556,0,0,0.008680555555555556,39.314236111111114,0)" xlink:href="#z"/><use transform="matrix(0.008680555555555556,0,0,0.008680555555555556,45.711805555555564,0)" xlink:href="#A"/><use transform="matrix(0.008680555555555556,0,0,0.008680555555555556,56.25000000000001,0)" xlink:href="#B"/><use transform="matrix(0.008680555555555556,0,0,0.008680555555555556,66.2326388888889,0)" xlink:href="#N"/></g></defs></g></svg>