<svg xmlns="http://www.w3.org/2000/svg" xmlns:xlink="http://www.w3.org/1999/xlink" xmlns:lucid="lucid" width="2082" height="322"><g transform="translate(321 -399)" lucid:page-tab-id="0_0"><path d="M-500 0h2500v1000H-500z" fill="#fff"/><path d="M-320 406a6 6 0 0 1 6-6h2068a6 6 0 0 1 6 6v308a6 6 0 0 1-6 6H-314a6 6 0 0 1-6-6z" stroke="#000" stroke-opacity="0" stroke-width="2" fill="#fff"/><path d="M440 440h560v240H440z" stroke="#000" stroke-opacity="0" fill="#dfe3e8"/><path d="M480 486a6 6 0 0 1 6-6h148a6 6 0 0 1 6 6v148a6 6 0 0 1-6 6H486a6 6 0 0 1-6-6z" stroke="#000" fill="#fff"/><use xlink:href="#a" transform="matrix(1,0,0,1,485,485) translate(23.984374999999993 84.75260416666667)"/><path d="M800 486a6 6 0 0 1 6-6h148a6 6 0 0 1 6 6v148a6 6 0 0 1-6 6H806a6 6 0 0 1-6-6z" stroke="#000" fill="#fff"/><use xlink:href="#b" transform="matrix(1,0,0,1,805,485) translate(23.45052083333333 66.00260416666667)"/><use xlink:href="#c" transform="matrix(1,0,0,1,805,485) translate(14.739583333333329 102.31770833333334)"/><path d="M641 521.24h142.12" stroke="#3a414a" fill="none"/><path d="M641 521.72h-.5v-.95h.5z" stroke="#3a414a" stroke-width=".05" fill="#3a414a"/><path d="M797.88 521.24l-14.26 4.64v-9.27z" stroke="#3a414a" fill="#3a414a"/><path d="M799 600.47h-1.97m-3.95 0h-3.95m-3.95 0h-3.94m-3.95 0h-3.96m-3.95 0h-3.95m-3.95 0h-3.95m-3.95 0h-3.95m-3.94 0h-3.94m-3.95 0h-3.94m-3.94 0h-3.95m-3.95 0h-3.95m-3.95 0h-3.94m-3.95 0h-3.95m-3.95 0h-3.94m-3.96 0h-3.95m-3.96 0h-3.94m-3.95 0h-3.95m-3.95 0h-3.95m-3.94 0h-1.98" stroke="#3a414a" fill="none"/><path d="M799.5 600.94h-.5V600h.5z" stroke="#3a414a" stroke-width=".05" fill="#3a414a"/><path d="M642.12 600.47l14.26-4.64v9.27z" stroke="#3a414a" fill="#3a414a"/><defs><path d="M1141-549c0 329-147 569-455 569-159 0-273-61-344-161h-12c23 199 7 418 12 633H176v-1588h135l23 150h8c77-108 175-170 344-170 311 0 455 237 455 567zm-172-2c0-242-88-424-307-424-256 0-323 154-320 426 3 280 68 430 324 430 213 0 303-196 303-432" id="d"/><path d="M340-893c80-153 237-262 467-211l-23 154c-45-10-85-15-120-15-184-3-322 182-322 377V0H176v-1096h137l19 203h8" id="e"/><path d="M621-1116c316 0 501 239 501 567 0 339-180 575-508 569S119-212 115-549c-4-339 178-567 506-567zm-5 141c-239 0-329 168-329 426 0 255 93 430 331 430s332-174 332-430-95-426-334-426" id="f"/><path d="M1368-1116c259 2 372 131 371 401V0h-166v-713c0-168-66-262-230-262-221 0-303 131-303 363V0H874v-713c-1-169-66-262-231-262-235 0-301 142-301 400V0H176v-1096h135l27 150h8c56-99 174-170 324-170 171 0 283 62 336 186h8c60-108 189-187 354-186" id="g"/><path d="M342 0H176v-1096h166V0zm-82-1282c-61 0-98-43-98-111 0-69 36-110 98-110 59 0 98 43 98 110s-39 111-98 111" id="h"/><path d="M502-977c-130 0-238 32-238 139 0 75 39 101 95 134 33 19 97 46 192 81 130 48 217 95 263 143s69 108 69 181C883-73 695 20 449 20 304 20 190-3 109-49v-154c91 47 216 86 344 86 149 0 270-36 270-168 0-43-21-76-55-109-56-55-367-158-434-208-74-55-128-109-128-225 0-327 490-342 754-217l-59 135c-110-45-210-68-299-68" id="i"/><path d="M995-51C878-2 799 19 639 20c-329 2-524-221-524-559 0-326 172-577 481-577 278 0 451 210 446 493v105H287c4 242 121 392 358 393 118 0 235-25 350-74v148zM864-653c2-195-85-324-270-324-190 0-288 139-303 324h573" id="j"/><g id="a"><use transform="matrix(0.013020833333333334,0,0,0.013020833333333334,0,0)" xlink:href="#d"/><use transform="matrix(0.013020833333333334,0,0,0.013020833333333334,16.341145833333336,0)" xlink:href="#e"/><use transform="matrix(0.013020833333333334,0,0,0.013020833333333334,26.692708333333336,0)" xlink:href="#f"/><use transform="matrix(0.013020833333333334,0,0,0.013020833333333334,42.79947916666667,0)" xlink:href="#g"/><use transform="matrix(0.013020833333333334,0,0,0.013020833333333334,67.60416666666667,0)" xlink:href="#h"/><use transform="matrix(0.013020833333333334,0,0,0.013020833333333334,74.34895833333334,0)" xlink:href="#i"/><use transform="matrix(0.013020833333333334,0,0,0.013020833333333334,87.07031250000001,0)" xlink:href="#j"/></g><path d="M575-1430c-169 0-190 146-184 334h279v129H391V0H225v-967H29v-75l196-60c-15-299 97-465 353-465 58 0 126 12 204 35l-43 133c-64-21-119-31-164-31" id="k"/><path d="M563 20c-271 0-399-123-399-399v-717h168v711c1 177 76 266 252 266 250 0 331-135 331-401v-576h166V0H944l-24-147h-9C848-44 724 20 563 20" id="l"/><path d="M694-1116c270 0 399 125 398 401V0H926v-709c-1-177-76-266-252-266-250 0-332 133-332 400V0H176v-1096h135l27 150h8c62-101 190-170 348-170" id="m"/><path d="M287-543c-1 247 91 418 323 418 91 0 185-20 281-59v147C818 1 725 20 614 20c-329 0-499-221-499-561 0-349 172-575 510-575 96 0 221 26 282 57l-51 141c-61-25-157-50-235-51-223 0-334 142-334 426" id="n"/><path d="M354-322c-2 123 60 204 176 205 51 1 114-10 150-20v127C647 7 557 20 506 20 294 20 188-92 188-315v-652H31v-80l157-69 70-234h96v254h318v129H354v645" id="o"/><g id="b"><use transform="matrix(0.013020833333333334,0,0,0.013020833333333334,0,0)" xlink:href="#k"/><use transform="matrix(0.013020833333333334,0,0,0.013020833333333334,9.036458333333334,0)" xlink:href="#l"/><use transform="matrix(0.013020833333333334,0,0,0.013020833333333334,25.403645833333336,0)" xlink:href="#m"/><use transform="matrix(0.013020833333333334,0,0,0.013020833333333334,41.770833333333336,0)" xlink:href="#n"/><use transform="matrix(0.013020833333333334,0,0,0.013020833333333334,54.466145833333336,0)" xlink:href="#o"/><use transform="matrix(0.013020833333333334,0,0,0.013020833333333334,63.880208333333336,0)" xlink:href="#h"/><use transform="matrix(0.013020833333333334,0,0,0.013020833333333334,70.625,0)" xlink:href="#f"/><use transform="matrix(0.013020833333333334,0,0,0.013020833333333334,86.73177083333334,0)" xlink:href="#m"/></g><path d="M440-561L59-1096h189l289 420 288-420h187L631-561 1032 0H844L537-444 227 0H39" id="p"/><g id="c"><use transform="matrix(0.013020833333333334,0,0,0.013020833333333334,0,0)" xlink:href="#j"/><use transform="matrix(0.013020833333333334,0,0,0.013020833333333334,14.427083333333334,0)" xlink:href="#p"/><use transform="matrix(0.013020833333333334,0,0,0.013020833333333334,27.864583333333336,0)" xlink:href="#j"/><use transform="matrix(0.013020833333333334,0,0,0.013020833333333334,42.825520833333336,0)" xlink:href="#n"/><use transform="matrix(0.013020833333333334,0,0,0.013020833333333334,55.520833333333336,0)" xlink:href="#l"/><use transform="matrix(0.013020833333333334,0,0,0.013020833333333334,71.88802083333334,0)" xlink:href="#o"/><use transform="matrix(0.013020833333333334,0,0,0.013020833333333334,81.30208333333334,0)" xlink:href="#h"/><use transform="matrix(0.013020833333333334,0,0,0.013020833333333334,88.04687500000001,0)" xlink:href="#f"/><use transform="matrix(0.013020833333333334,0,0,0.013020833333333334,104.15364583333334,0)" xlink:href="#m"/></g></defs></g></svg>