<svg xmlns="http://www.w3.org/2000/svg" xmlns:xlink="http://www.w3.org/1999/xlink" xmlns:lucid="lucid" width="2082" height="322"><g transform="translate(321 -399)" lucid:page-tab-id="0_0"><path d="M-500 0h2500v1000H-500z" fill="#fff"/><path d="M-320 406a6 6 0 0 1 6-6h2068a6 6 0 0 1 6 6v308a6 6 0 0 1-6 6H-314a6 6 0 0 1-6-6z" stroke="#000" stroke-opacity="0" stroke-width="2" fill="#fff"/><path d="M600 440h240v240H600z" stroke="#000" stroke-opacity="0" fill="#dfe3e8"/><path d="M640 486a6 6 0 0 1 6-6h148a6 6 0 0 1 6 6v148a6 6 0 0 1-6 6H646a6 6 0 0 1-6-6z" stroke="#000" fill="#fff"/><use xlink:href="#a" transform="matrix(1,0,0,1,645,485) translate(46.484375 84.75260416666667)"/><defs><path d="M575-1430c-169 0-190 146-184 334h279v129H391V0H225v-967H29v-75l196-60c-15-299 97-465 353-465 58 0 126 12 204 35l-43 133c-64-21-119-31-164-31" id="b"/><path d="M621-1116c316 0 501 239 501 567 0 339-180 575-508 569S119-212 115-549c-4-339 178-567 506-567zm-5 141c-239 0-329 168-329 426 0 255 93 430 331 430s332-174 332-430-95-426-334-426" id="c"/><path d="M383 324C201 116 82-188 82-561c0-378 120-688 301-901h162c-172 227-289 529-289 899 0 361 122 665 287 887H383" id="d"/><path d="M223-1462c182 213 301 524 301 901 0 373-119 679-301 885H63c166-222 287-526 287-887 0-369-117-672-289-899h162" id="e"/><g id="a"><use transform="matrix(0.013020833333333334,0,0,0.013020833333333334,0,0)" xlink:href="#b"/><use transform="matrix(0.013020833333333334,0,0,0.013020833333333334,9.036458333333334,0)" xlink:href="#c"/><use transform="matrix(0.013020833333333334,0,0,0.013020833333333334,25.14322916666667,0)" xlink:href="#c"/><use transform="matrix(0.013020833333333334,0,0,0.013020833333333334,41.25000000000001,0)" xlink:href="#d"/><use transform="matrix(0.013020833333333334,0,0,0.013020833333333334,49.14062500000001,0)" xlink:href="#e"/></g></defs></g></svg>